<svg width="23" height="23" viewBox="0 0 23 23" fill="none" xmlns="http://www.w3.org/2000/svg">
<g clip-path="url(#clip0_13_1708)">
<path d="M21.84 8.56638L14.6753 1.40077C13.7886 0.516629 12.5875 0.0201416 11.3353 0.0201416C10.0831 0.0201416 8.88194 0.516629 7.99521 1.40077L0.830544 8.56638C0.566463 8.82877 0.357091 9.14097 0.214565 9.48488C0.0720393 9.82879 -0.000804725 10.1976 0.000255551 10.5698V19.8428C0.000255551 20.5944 0.298811 21.3151 0.830242 21.8466C1.36167 22.378 2.08245 22.6766 2.83401 22.6766H19.8365C20.5881 22.6766 21.3088 22.378 21.8403 21.8466C22.3717 21.3151 22.6703 20.5944 22.6703 19.8428V10.5698C22.6713 10.1976 22.5985 9.82879 22.4559 9.48488C22.3134 9.14097 22.104 8.82877 21.84 8.56638ZM14.169 20.7874H8.50151V17.0714C8.50151 16.3198 8.80006 15.5991 9.33149 15.0676C9.86292 14.5362 10.5837 14.2377 11.3353 14.2377C12.0868 14.2377 12.8076 14.5362 13.339 15.0676C13.8705 15.5991 14.169 16.3198 14.169 17.0714V20.7874ZM20.7811 19.8428C20.7811 20.0933 20.6816 20.3336 20.5044 20.5107C20.3273 20.6879 20.087 20.7874 19.8365 20.7874H16.0582V17.0714C16.0582 15.8188 15.5606 14.6175 14.6749 13.7318C13.7891 12.8461 12.5879 12.3485 11.3353 12.3485C10.0827 12.3485 8.88137 12.8461 7.99565 13.7318C7.10993 14.6175 6.61234 15.8188 6.61234 17.0714V20.7874H2.83401C2.58349 20.7874 2.34323 20.6879 2.16608 20.5107C1.98894 20.3336 1.88942 20.0933 1.88942 19.8428V10.5698C1.8903 10.3195 1.98973 10.0796 2.16619 9.90202L9.33085 2.73924C9.86331 2.20927 10.584 1.91173 11.3353 1.91173C12.0865 1.91173 12.8072 2.20927 13.3397 2.73924L20.5043 9.90485C20.6801 10.0817 20.7795 10.3205 20.7811 10.5698V19.8428Z" fill="white"/>
</g>
<defs>
<clipPath id="clip0_13_1708">
<rect width="22.67" height="22.67" fill="white"/>
</clipPath>
</defs>
</svg>
