<svg width="212" height="32" viewBox="0 0 212 32" fill="none" xmlns="http://www.w3.org/2000/svg">
<path d="M7.75718 21.8396H14.0695V26H4.9597C3.38163 24.5176 2.18613 22.6406 1.37318 20.3692C0.560239 18.0977 0.153767 15.7665 0.153767 13.3755C0.153767 10.9605 0.60806 8.64126 1.51664 6.41762C2.42523 4.19398 3.77615 2.3529 5.56941 0.89438H14.0695V5.1982H7.75718C7.11161 5.93941 6.54972 7.13492 6.07152 8.78472C5.61723 10.4345 5.39008 12.0126 5.39008 13.5189C5.39008 15.0253 5.61723 16.6033 6.07152 18.2531C6.54972 19.9029 7.11161 21.0984 7.75718 21.8396ZM15.7131 15.9219V7.6729H20.4832V15.9578C20.4832 18.0379 20.9016 19.7714 21.7384 21.1582H23.8545C24.6435 19.7953 25.038 18.0618 25.038 15.9578V7.6729H29.8081V15.6708C29.8081 17.4641 29.569 19.0422 29.0908 20.405C28.6365 21.7679 27.8833 23.3101 26.8313 25.0316L24.4283 28.9409C23.9979 29.6822 23.5436 30.2321 23.0654 30.5907C22.5872 30.9494 21.9656 31.2124 21.2005 31.3798H15.5338V27.6139H19.4072C19.9093 27.4705 20.3277 27.2194 20.6625 26.8608C20.9972 26.5021 21.3439 25.988 21.7026 25.3186L21.9178 24.924H19.4431C18.2954 23.9916 17.3868 22.7363 16.7173 21.1582C16.0478 19.5562 15.7131 17.8108 15.7131 15.9219ZM32.7726 0.89438H37.5068V8.96404C38.0328 8.48584 38.523 8.1511 38.9773 7.95982C39.4555 7.76854 40.1608 7.6729 41.0933 7.6729H43.9625C44.9667 8.65321 45.7558 9.92045 46.3296 11.4746C46.9035 13.0288 47.1904 14.7383 47.1904 16.6033C47.1904 20.5963 45.9949 23.7285 43.6039 26H40.1967C39.0251 26 38.0448 25.5577 37.2557 24.673L36.6102 26H32.7726V0.89438ZM37.5426 22.2342H40.9857C41.8704 20.7278 42.3127 18.8987 42.3127 16.7468C42.3127 14.5949 41.8584 12.8255 40.9498 11.4387H37.5426V22.2342ZM58.0444 11.4387H55.3545C54.9958 11.8691 54.6969 12.4669 54.4578 13.232C54.2426 13.9971 54.135 14.7383 54.135 15.4556H59.2638C59.3116 14.7383 59.2159 13.9971 58.9768 13.232C58.7377 12.443 58.4269 11.8452 58.0444 11.4387ZM62.922 22.2342V26H53.8123C52.1386 24.8762 50.955 23.4894 50.2616 21.8396C49.5921 20.1659 49.2574 18.4803 49.2574 16.7827C49.2574 12.8614 50.7398 9.82481 53.7047 7.6729H59.5148C61.1168 8.84449 62.2047 10.0878 62.7786 11.4029C63.3524 12.7179 63.6393 14.0449 63.6393 15.3839C63.6393 16.7229 63.5317 17.8706 63.3165 18.827H54.3861C54.4578 19.3769 54.6611 20.0105 54.9958 20.7278C55.3545 21.4212 55.737 21.9233 56.1435 22.2342H62.922ZM66.0818 26V7.6729H69.489L70.3856 9.60962C71.342 8.31847 72.5495 7.6729 74.008 7.6729H75.4067V12.4788H70.8519V26H66.0818ZM138.55 26H130.946C129.225 24.4219 127.97 22.545 127.181 20.3692C126.392 18.1933 125.997 15.9219 125.997 13.5548C125.997 11.1638 126.475 8.80863 127.432 6.48935C128.388 4.17007 129.727 2.30508 131.449 0.89438H140.164V5.1982H133.493C132.871 5.9155 132.333 7.05123 131.879 8.60539C131.425 10.1356 131.198 11.7735 131.198 13.5189C131.198 15.2404 131.401 16.8902 131.807 18.4683C132.238 20.0225 132.764 21.1462 133.385 21.8396H136.828V12.0843H141.563V18.1097C141.563 21.4093 140.558 24.0394 138.55 26ZM152.829 17.7151H148.992C148.49 18.3368 148.239 19.1139 148.239 20.0464C148.239 20.9789 148.502 21.7081 149.028 22.2342H152.829V17.7151ZM145.118 7.6729H154.013C155.447 8.53366 156.392 9.52593 156.846 10.6497C157.3 11.7496 157.528 13.2559 157.528 15.1687V20.5485C157.528 22.533 157.575 24.3502 157.671 26H153.582L152.937 24.7089C152.004 25.5696 150.689 26 148.992 26H146.732C144.7 24.661 143.684 22.7363 143.684 20.2257C143.684 17.6912 144.724 15.6947 146.804 14.2362H150.175C151.108 14.2362 151.98 14.5231 152.793 15.097V13.3037C152.793 12.3712 152.387 11.7496 151.574 11.4387H145.118V7.6729ZM168.574 7.6729H171.121L172.017 8.92818C172.52 8.47389 172.998 8.1511 173.452 7.95982C173.93 7.76854 174.636 7.6729 175.568 7.6729H179.549C180.601 9.01186 181.318 10.3508 181.701 11.6898C182.084 13.0288 182.275 14.7025 182.275 16.7109V26H177.505V16.3523C177.505 14.1525 177.17 12.5147 176.501 11.4387H173.058C173.584 12.4669 173.847 13.8656 173.847 15.635V26H169.076V16.3523C169.076 14.0808 168.766 12.443 168.144 11.4387H165.382V26H160.612V7.6729H164.342L164.988 8.96404C165.514 8.48584 166.004 8.1511 166.458 7.95982C166.937 7.76854 167.642 7.6729 168.574 7.6729ZM193.484 11.4387H190.795C190.436 11.8691 190.137 12.4669 189.898 13.232C189.683 13.9971 189.575 14.7383 189.575 15.4556H194.704C194.752 14.7383 194.656 13.9971 194.417 13.232C194.178 12.443 193.867 11.8452 193.484 11.4387ZM198.362 22.2342V26H189.252C187.579 24.8762 186.395 23.4894 185.702 21.8396C185.032 20.1659 184.697 18.4803 184.697 16.7827C184.697 12.8614 186.18 9.82481 189.145 7.6729H194.955C196.557 8.84449 197.645 10.0878 198.219 11.4029C198.792 12.7179 199.079 14.0449 199.079 15.3839C199.079 16.7229 198.972 17.8706 198.757 18.827H189.826C189.898 19.3769 190.101 20.0105 190.436 20.7278C190.795 21.4212 191.177 21.9233 191.584 22.2342H198.362ZM202.719 7.6729H210.645V11.4387H205.05L208.457 16.4957C209.988 18.6715 210.836 20.1659 211.004 20.9789C211.099 21.3614 211.147 21.756 211.147 22.1624C211.147 23.86 210.514 25.1392 209.246 26H200.101V22.2342H206.664L202.826 16.6033C202.659 16.3403 202.396 15.9697 202.037 15.4915C201.703 15.0133 201.44 14.6307 201.248 14.3438C201.057 14.033 200.926 13.8058 200.854 13.6624C200.782 13.5189 200.686 13.3396 200.567 13.1244C200.447 12.8853 200.364 12.6821 200.316 12.5147C200.22 12.0604 200.172 11.6898 200.172 11.4029C200.172 9.65744 201.021 8.41411 202.719 7.6729Z" fill="white"/>
<path d="M88.8332 26L82.1264 12.1202L81.9471 12.1919L82.1623 16.424V26H77.6433V0.89438H81.2656L87.8648 15.3122L88.0442 15.2404L87.6496 10.829V0.89438H92.1687V26H88.8332ZM103.716 11.4387H101.027C100.668 11.8691 100.369 12.4669 100.13 13.232C99.9147 13.9971 99.8071 14.7383 99.8071 15.4556H104.936C104.984 14.7383 104.888 13.9971 104.649 13.232C104.41 12.443 104.099 11.8452 103.716 11.4387ZM108.594 22.2342V26H99.4843C97.8106 24.8762 96.6271 23.4894 95.9337 21.8396C95.2642 20.1659 94.9294 18.4803 94.9294 16.7827C94.9294 12.8614 96.4119 9.82481 99.3767 7.6729H105.187C106.789 8.84449 107.877 10.0878 108.451 11.4029C109.024 12.7179 109.311 14.0449 109.311 15.3839C109.311 16.7229 109.204 17.8706 108.989 18.827H100.058C100.13 19.3769 100.333 20.0105 100.668 20.7278C101.027 21.4212 101.409 21.9233 101.816 22.2342H108.594ZM117.429 14.4873L119.653 7.6729H124.638L121.231 16.6033L124.781 26H119.868L117.393 18.8987H117.25L114.883 26H109.969L113.52 16.6033L110.112 7.6729H115.026L117.285 14.4873H117.429Z" fill="#6FBFF9"/>
</svg>
