<svg width="23" height="23" viewBox="0 0 23 23" fill="none" xmlns="http://www.w3.org/2000/svg">
<g clip-path="url(#clip0_10_3452)">
<path d="M20.9768 4.75052C20.1302 3.33954 18.6251 2.39886 16.9319 2.39886H5.64399C3.95078 2.39886 2.44575 3.33954 1.59912 4.75052C0.564403 6.63187 0 8.70135 0 10.8649C0 16.0385 2.06948 20.2715 4.70332 20.2715C6.1143 20.2715 7.24311 18.9546 8.08969 16.2266C8.18374 15.8504 8.56001 15.5682 9.03036 15.5682H13.6396C14.0159 15.5682 14.3922 15.8504 14.5803 16.2266C15.4269 18.9546 16.5557 20.2715 17.9667 20.2715C20.6005 20.2715 22.67 16.0385 22.67 10.8649C22.576 8.70135 22.0116 6.63187 20.9768 4.75052ZM17.8726 18.3902C17.5904 18.3902 16.9319 17.6376 16.2735 15.6622C15.8972 14.4394 14.7684 13.6868 13.5455 13.6868H9.03036C7.80751 13.6868 6.67871 14.5334 6.30244 15.6622C5.64399 17.6376 4.9855 18.3902 4.70332 18.3902C3.76264 18.3902 1.88134 15.4741 1.88134 10.8649C1.88134 9.07762 2.35166 7.29036 3.19829 5.69124C3.76269 4.84466 4.70336 4.28025 5.64403 4.28025H16.932C17.8727 4.28025 18.8134 4.84466 19.3778 5.69124C20.2243 7.29036 20.6947 9.07762 20.6947 10.8649C20.6946 15.4741 18.8133 18.3902 17.8726 18.3902Z" fill="white"/>
<path d="M8.50129 8.50125H7.55672V7.55669C7.55672 6.98994 7.1789 6.61212 6.61215 6.61212C6.0454 6.61212 5.66758 6.98994 5.66758 7.55669V8.50125H4.72301C4.15626 8.50125 3.77844 8.87907 3.77844 9.44582C3.77844 10.0126 4.15626 10.3904 4.72301 10.3904H5.66754V11.335C5.66754 11.9017 6.04536 12.2796 6.61211 12.2796C7.17886 12.2796 7.55668 11.9017 7.55668 11.335V10.3904H8.50129C9.06804 10.3904 9.44586 10.0126 9.44586 9.44586C9.44586 8.87907 9.06804 8.50125 8.50129 8.50125Z" fill="white"/>
<path d="M17.4748 9.44581C18.2573 9.44581 18.8917 8.81145 18.8917 8.02894C18.8917 7.24642 18.2573 6.61206 17.4748 6.61206C16.6923 6.61206 16.0579 7.24642 16.0579 8.02894C16.0579 8.81145 16.6923 9.44581 17.4748 9.44581Z" fill="white"/>
<path d="M14.6411 12.2796C15.4236 12.2796 16.0579 11.6452 16.0579 10.8627C16.0579 10.0802 15.4236 9.4458 14.6411 9.4458C13.8585 9.4458 13.2242 10.0802 13.2242 10.8627C13.2242 11.6452 13.8585 12.2796 14.6411 12.2796Z" fill="white"/>
</g>
<defs>
<clipPath id="clip0_10_3452">
<rect width="22.67" height="22.67" fill="white"/>
</clipPath>
</defs>
</svg>
